<svg width="340" height="71" viewBox="0 0 340 71" fill="none" xmlns="http://www.w3.org/2000/svg">
<g clip-path="url(#clip0_1_2)">
<path d="M12.1823 16.4995C17.1515 15.2659 21.3751 16.0926 24.8531 18.9797C28.3604 21.8183 30.991 26.7703 32.745 33.8359C34.4798 40.8238 34.4705 46.4312 32.7173 50.6581C30.9641 54.8851 27.6223 57.6105 22.6919 58.8345C17.7616 60.0584 13.5428 59.2511 10.0356 56.4125C6.5575 53.5254 3.93665 48.5297 2.17299 41.4254C0.438253 34.4375 0.432903 28.8543 2.15694 24.6758C3.91017 20.4489 7.25196 17.7234 12.1823 16.4995ZM13.8448 23.1962C11.826 23.6973 10.6255 25.17 10.2431 27.6141C9.8899 30.0098 10.3638 33.8281 11.6649 39.069C12.5708 42.7182 13.4781 45.5428 14.3867 47.5428C15.3342 49.5332 16.3312 50.893 17.3777 51.6224C18.4535 52.3033 19.6707 52.475 21.0295 52.1377C22.4271 51.7908 23.4227 51.0697 24.0162 49.9744C24.6487 48.8695 24.8988 47.2206 24.7666 45.0279C24.6635 42.7867 24.1591 39.8415 23.2531 36.1922C21.9425 30.9125 20.5514 27.3013 19.08 25.3585C17.6474 23.4062 15.9023 22.6854 13.8448 23.1962Z" fill="#FF003A"/>
<path d="M47.7164 11.3057C52.8436 10.7248 56.8869 11.414 59.8463 13.3733C62.8056 15.3327 64.5352 18.5182 65.0351 22.93C65.5574 27.5405 64.6619 31.1845 62.3486 33.8619C60.0308 36.4996 56.507 38.0863 51.7773 38.6222L49.5714 38.8721L51.1452 52.7632L41.7851 53.8237L37.1043 12.508L47.7164 11.3057ZM50.2323 31.9135C52.3785 31.6703 53.848 30.9604 54.6405 29.7837C55.4683 28.5627 55.7337 26.6406 55.4365 24.0174C55.1753 21.7122 54.5269 20.0748 53.4911 19.1052C52.4906 18.0914 50.9173 17.706 48.771 17.9492L47.2209 18.1248L48.8014 32.0756L50.2323 31.9135Z" fill="#FF003A"/>
<path d="M90.8048 7.41623L90.3079 14.1862L78.7552 14.9804L79.4711 25.3958L89.6471 24.6963L90.0997 31.2808L79.9237 31.9803L80.6767 42.9344L93.0076 42.0868L93.4767 48.9107L71.748 50.4043L68.8965 8.9222L90.8048 7.41623Z" fill="#FF003A"/>
<path d="M128.397 47.4725L116.765 47.9135L106.763 15.329C107.295 18.7914 107.705 21.6979 107.994 24.0486C108.282 26.3594 108.489 29.1736 108.615 32.4912L109.21 48.1999L101.116 48.5068L99.5408 6.95665L111.172 6.51565L121.174 39.1001C120.126 33.6159 119.51 28.4555 119.326 23.619L118.667 6.2315L126.821 5.92234L128.397 47.4725Z" fill="#FF003A"/>
<path d="M148.889 4.56317C151.488 4.53342 153.773 4.9473 155.743 5.80482C157.753 6.66188 159.588 7.96096 161.248 9.70208L157.165 14.6691C154.74 12.4967 152.347 11.424 149.987 11.4511C148.628 11.4666 147.572 11.8787 146.821 12.6874C146.071 13.496 145.703 14.5603 145.718 15.8802C145.733 17.1601 146.185 18.215 147.074 19.0449C147.963 19.8348 149.674 20.7552 152.206 21.8063C154.538 22.8197 156.43 23.8781 157.883 24.9816C159.335 26.045 160.43 27.3726 161.169 28.9643C161.947 30.5555 162.35 32.531 162.377 34.8908C162.405 37.4107 161.851 39.6771 160.714 41.6903C159.617 43.703 158.015 45.2814 155.908 46.4256C153.801 47.5698 151.328 48.1581 148.488 48.1906C145.528 48.2245 142.962 47.7338 140.79 46.7186C138.619 45.7034 136.662 44.2857 134.921 42.4655L139.364 37.4343C140.819 38.6978 142.19 39.6621 143.477 40.3274C144.805 40.9523 146.208 41.2562 147.688 41.2393C149.328 41.2205 150.563 40.7264 151.391 39.7568C152.22 38.7473 152.625 37.4026 152.605 35.7227C152.588 34.2028 152.154 32.9677 151.303 32.0173C150.452 31.027 148.921 30.1045 146.711 29.2497C142.853 27.6938 140.113 25.965 138.491 24.0634C136.869 22.1219 136.041 19.6712 136.007 16.7114C135.98 14.3515 136.516 12.2653 137.615 10.4526C138.714 8.59986 140.238 7.16233 142.186 6.13997C144.175 5.11715 146.409 4.59155 148.889 4.56317Z" fill="#FF003A"/>
<path d="M195.01 5.74027L193.968 12.9288L185.988 12.8375L185.595 47.2152L176.175 47.1075L176.569 12.7297L168.109 12.6329L168.192 5.43337L195.01 5.74027Z" fill="#FF003A"/>
<path d="M219.959 48.1516L213.759 31.8984L213.459 31.8876L211.181 31.8057L210.605 47.8154L201.191 47.4769L202.685 5.92375L213.778 6.32256C224.091 6.69334 229.097 11.076 228.795 19.4706C228.708 21.909 228.109 24.0889 226.999 26.0103C225.929 27.9331 224.296 29.3953 222.098 30.397L229.973 48.5117L219.959 48.1516ZM213.334 25.3389C215.333 25.4108 216.79 24.9628 217.705 23.9951C218.622 22.9874 219.121 21.3642 219.201 19.1257C219.275 17.087 218.849 15.5707 217.924 14.5769C217.039 13.5844 215.557 13.0508 213.479 12.9761L211.86 12.9179L211.416 25.2699L213.334 25.3389Z" fill="#FF003A"/>
<path d="M260.248 8.81508L258.852 15.4583L247.297 14.7039L246.617 25.1217L256.795 25.7862L256.365 32.3722L246.187 31.7077L245.472 42.6644L257.805 43.4696L257.36 50.295L235.626 48.8762L238.335 7.38454L260.248 8.81508Z" fill="#FF003A"/>
<path d="M283.484 52.8983L282.789 43.6509L273.603 42.6618L271.016 51.556L261.709 50.5541L276.182 10.292L287.397 11.4994L292.969 53.9194L283.484 52.8983ZM275.581 36.0556L282.322 36.7814L280.932 17.7432L275.581 36.0556Z" fill="#FF003A"/>
<path d="M332.038 63.3473L323.415 61.227L327.005 45.1183C327.796 41.3995 328.621 37.7922 329.481 34.2964C330.083 31.8493 330.546 30.0479 330.872 28.8921L319.523 55.6976L310.958 53.5916L313.115 24.4642C312.658 26.6585 311.952 29.6978 310.997 33.5821C310.223 36.7283 309.607 39.1512 309.148 40.8508L304.887 56.671L296.322 54.565L308.698 14.7895L320.001 17.5689L317.463 46.2321L328.1 19.5603L339.578 22.3827L332.038 63.3473Z" fill="#FF003A"/>
</g>
<defs>
<clipPath id="clip0_1_2">
<rect width="339.99" height="70.8" fill="white"/>
</clipPath>
</defs>
</svg>
